<svg xmlns="http://www.w3.org/2000/svg" width="149.684" height="135.588" viewBox="0 0 149.684 135.588"><g transform="translate(37.995 0)" fill="none"><path d="M76.008,46.961a17.984,17.984,0,0,1,6.551,8.58,24.434,24.434,0,0,1,1.28,11.253,28.273,28.273,0,0,1-3.8,11.309A25.162,25.162,0,0,1,71.5,86.8L29.844,111.992a17.006,17.006,0,0,1-9.951,2.643,14.759,14.759,0,0,1-8.468-3.4,18.211,18.211,0,0,1-5.483-8.043A24.674,24.674,0,0,1,4.873,91.808l6.342-49.759a27.852,27.852,0,0,1,3.893-11.082A25.359,25.359,0,0,1,22.474,23.2,18.625,18.625,0,0,1,31.6,19.929a14.181,14.181,0,0,1,9.124,2.539Z" stroke="none"/><path d="M 13.85182094573975 92.00979614257812 C 13.6711540222168 93.44927978515625 13.71076393127441 94.71303558349609 13.89133834838867 95.81507873535156 C 14.07209968566895 96.91826629638672 14.39418888092041 97.85974884033203 14.77810573577881 98.65300750732422 C 15.16248321533203 99.44721984863281 15.60885143280029 100.0928726196289 16.03731727600098 100.6032104492188 C 16.46624946594238 101.1140975952148 16.87713050842285 101.4892654418945 17.18963432312012 101.7418518066406 C 17.50237083435059 101.99462890625 17.94939041137695 102.3127975463867 18.51457595825195 102.6048736572266 C 19.08041572570801 102.8973159790039 19.76491928100586 103.1637115478516 20.55185699462891 103.3121490478516 C 21.33996772766113 103.4608154296875 22.23097038269043 103.4912109375 23.20845603942871 103.3109130859375 C 24.1875057220459 103.1303176879883 25.25333213806152 102.7383651733398 26.38919830322266 102.0422210693359 L 67.68470001220703 76.73297882080078 C 68.89009857177734 75.99420166015625 69.86109161376953 75.12853240966797 70.64286804199219 74.21421051025391 C 71.42523193359375 73.29920959472656 72.01752471923828 72.33612060546875 72.46573638916016 71.40314483642578 C 72.91402435302734 70.47000122070312 73.21798706054688 69.56739044189453 73.42399597167969 68.77317810058594 C 73.62996673583984 67.97906494140625 73.73796844482422 67.29345703125 73.79449462890625 66.79380035400391 C 73.85102081298828 66.29425811767578 73.89812469482422 65.60915374755859 73.87184906005859 64.81613922119141 C 73.84557342529297 64.02355194091797 73.74601745605469 63.12348175048828 73.50939178466797 62.19369888305664 C 73.27298736572266 61.26483535766602 72.89989471435547 60.30677032470703 72.32680511474609 59.39728546142578 C 71.75460815429688 58.48921203613281 70.98336029052734 57.63011169433594 69.95050048828125 56.89745712280273 L 34.96162414550781 32.07801818847656 C 34.00995635986328 31.40295600891113 33.05471801757812 31.02305221557617 32.13435745239258 30.84806632995605 C 31.21561431884766 30.67338371276855 30.33126831054688 30.70283699035645 29.51961898803711 30.84687805175781 C 28.70905494689941 30.9907283782959 27.97064208984375 31.24892044067383 27.34256744384766 31.53240966796875 C 26.71508598327637 31.81563568115234 26.19747161865234 32.12424087524414 25.82791519165039 32.36946487426758 C 25.45856285095215 32.61456298828125 24.96231460571289 32.97869873046875 24.41496276855469 33.47476959228516 C 23.86797523498535 33.97052001953125 23.26996803283691 34.5980339050293 22.69635200500488 35.37039947509766 C 22.1230297088623 36.14237213134766 21.57391738891602 37.05925369262695 21.12410545349121 38.13458633422852 C 20.67434501647949 39.20981597900391 20.3236026763916 40.44406890869141 20.14695358276367 41.85158920288086 L 13.85182094573975 92.00979614257812 M 4.872972965240479 91.80816650390625 L 11.2150239944458 42.04888534545898 C 11.74057483673096 37.92543792724609 13.13748645782471 34.16741943359375 15.10804843902588 30.96641540527344 C 17.08140754699707 27.76088905334473 19.63560104370117 25.10493278503418 22.47423362731934 23.19949150085449 C 25.32377243041992 21.2867317199707 28.4657154083252 20.12639808654785 31.59866333007812 19.92857551574707 C 34.74876403808594 19.72966766357422 37.89362335205078 20.50360298156738 40.72307968139648 22.46768379211426 L 76.00823211669922 46.96109771728516 C 77.54790496826172 48.02987670898438 78.86051177978516 49.31256866455078 79.95032501220703 50.75773620605469 C 81.04316711425781 52.2068977355957 81.91136169433594 53.818603515625 82.55953216552734 55.54063034057617 C 83.20913696289062 57.26640319824219 83.63734436035156 59.10189819335938 83.84918975830078 60.99423980712891 C 84.06134796142578 62.88946533203125 84.05635070800781 64.84046173095703 83.839599609375 66.79380798339844 C 83.62267303466797 68.74880981445312 83.19379425048828 70.70478057861328 82.55889892578125 72.60804748535156 C 81.92391967773438 74.51155090332031 81.08334350585938 76.36088562011719 80.04359436035156 78.10236358642578 C 79.00453948974609 79.84270477294922 77.76741790771484 81.47391510009766 76.33919525146484 82.94259643554688 C 74.9130859375 84.40908813476562 73.29763793945312 85.71224975585938 71.50035095214844 86.79920196533203 L 29.84424209594727 111.9919815063477 C 26.46465301513672 114.0358963012695 23.05892944335938 114.8422927856445 19.89365577697754 114.6349868774414 C 16.74618911743164 114.4288787841797 13.83803176879883 113.2205505371094 11.4254789352417 111.2313919067383 C 9.026227951049805 109.2531890869141 7.115479946136475 106.5013809204102 5.942269802093506 103.1887969970703 C 4.774029731750488 99.89023590087891 4.334938049316406 96.02956390380859 4.872972965240479 91.80816650390625 Z" stroke="none" fill="#fff"/></g><g transform="translate(0 2.412)" fill="none"><path d="M71.841,45.255a16.983,16.983,0,0,1,5.98,8.277,24.284,24.284,0,0,1,1.045,10.85,28.283,28.283,0,0,1-3.673,10.9,24.352,24.352,0,0,1-8.053,8.387L28.052,108a15.6,15.6,0,0,1-9.307,2.563,13.322,13.322,0,0,1-7.856-3.273,17.283,17.283,0,0,1-5.019-7.757,24.517,24.517,0,0,1-.861-10.988l6.523-48.077A27.847,27.847,0,0,1,15.3,29.759a24.581,24.581,0,0,1,6.97-7.5,17.178,17.178,0,0,1,8.553-3.15A12.77,12.77,0,0,1,39.3,21.575Z" stroke="none"/><path d="M 13.38530254364014 88.73406219482422 C 13.19925022125244 90.12397003173828 13.22083377838135 91.34400177001953 13.375901222229 92.40776062011719 C 13.53112411499023 93.47261047363281 13.82013320922852 94.38117218017578 14.16861629486084 95.14657592773438 C 14.51750087738037 95.912841796875 14.92601776123047 96.53564453125 15.31944370269775 97.02781677246094 C 15.71329212188721 97.52051544189453 16.09193992614746 97.88219451904297 16.38033485412598 98.12568664550781 C 16.66892433166504 98.36930847167969 17.08193969726562 98.67593383789062 17.60546112060547 98.95724487304688 C 18.12957191467285 99.23887634277344 18.76462364196777 99.49524688720703 19.49660873413086 99.63765716552734 C 20.22964286804199 99.78028106689453 21.06003189086914 99.80865478515625 21.97357368469238 99.63363647460938 C 22.88851547241211 99.45832061767578 23.88691139221191 99.07900238037109 24.95426177978516 98.40611267089844 L 63.72055435180664 73.96653747558594 C 64.85100555419922 73.25386047363281 65.76502227783203 72.41892242431641 66.50366973876953 71.53716278076172 C 67.24283599853516 70.65473937988281 67.80587005615234 69.72602844238281 68.23454284667969 68.82638549804688 C 68.66328430175781 67.92658233642578 68.95742797851562 67.05623626708984 69.15911102294922 66.2904052734375 C 69.36076354980469 65.52468872070312 69.46994018554688 64.86358642578125 69.52888488769531 64.38178253173828 C 69.58782958984375 63.90008544921875 69.64037322998047 63.23944473266602 69.62605285644531 62.47473907470703 C 69.61174774169922 61.71043395996094 69.53067016601562 60.84244537353516 69.32250213623047 59.94576644897461 C 69.11452484130859 59.0499382019043 68.77982330322266 58.12590026855469 68.25846862792969 57.24862670898438 C 67.73790740966797 56.37266159057617 67.03155517578125 55.54383850097656 66.08023071289062 54.83684921264648 L 33.80879592895508 30.85399627685547 C 32.92982482910156 30.2007884979248 32.04381942749023 29.83272552490234 31.18775177001953 29.66268157958984 C 30.33312797546387 29.49291801452637 29.50802421569824 29.52044677734375 28.7492561340332 29.65878486633301 C 27.99147033691406 29.79694747924805 27.2995433807373 30.04568290710449 26.7102108001709 30.31899070739746 C 26.12140274047852 30.5920581817627 25.63475608825684 30.8897647857666 25.28700256347656 31.12638473510742 C 24.93943214416504 31.36287879943848 24.47201347351074 31.71429634094238 23.95527648925781 32.19317626953125 C 23.43887710571289 32.67176055908203 22.87324333190918 33.27764511108398 22.32859230041504 34.02356338500977 C 21.78420829772949 34.76910400390625 21.26062774658203 35.65473556518555 20.8277587890625 36.69358825683594 C 20.39491844177246 37.73234558105469 20.05254554748535 38.92486190795898 19.87049293518066 40.28494644165039 L 13.38530254364014 88.73406219482422 M 5.008713722229004 88.54595184326172 L 11.53152179718018 40.46914672851562 C 12.07227039337158 36.48353576660156 13.42210865020752 32.851806640625 15.30065631866455 29.75919914245605 C 17.18177223205566 26.6623649597168 19.59817886352539 24.09770011901855 22.27058982849121 22.25918388366699 C 24.95291328430176 20.41385078430176 27.89839553833008 19.29646110534668 30.82309722900391 19.10953330993652 C 33.76327514648438 18.92162132263184 36.68593597412109 19.6738224029541 39.29918670654297 21.57537651062012 L 71.84081268310547 45.25470352172852 C 73.25879669189453 46.28651428222656 74.46275329589844 47.52441024780273 75.45740509033203 48.91876983642578 C 76.45468902587891 50.31682968139648 77.24098205566406 51.87142181396484 77.82130432128906 53.53217697143555 C 78.40285491943359 55.1964111328125 78.77720642089844 56.96626281738281 78.94972229003906 58.79076385498047 C 79.12248992919922 60.61795043945312 79.09273529052734 62.49877548217773 78.86617279052734 64.38178253173828 C 78.63944244384766 66.26633453369141 78.21575927734375 68.15179443359375 77.60128784179688 69.9864501953125 C 76.98677062988281 71.82131195068359 76.18186187744141 73.60403442382812 75.19325256347656 75.28286743164062 C 74.20526885986328 76.96064758300781 73.03456115722656 78.53337860107422 71.68825531005859 79.94957733154297 C 70.34387969970703 81.36376190185547 68.82549285888672 82.62071228027344 67.14069366455078 83.66943359375 L 28.05195999145508 108.0009307861328 C 24.8773136138916 109.9770431518555 21.69295692443848 110.7596817016602 18.74456024169922 110.5641326904297 C 15.81218147277832 110.3696365356445 13.11462020874023 109.207649230957 10.88833236694336 107.2911682128906 C 8.673882484436035 105.384880065918 6.924241542816162 102.7308502197266 5.869394302368164 99.53414916992188 C 4.818856239318848 96.35053253173828 4.455559730529785 92.62300109863281 5.008713722229004 88.54595184326172 Z" stroke="none" fill="#fff"/></g></svg>