<svg xmlns="http://www.w3.org/2000/svg" width="484.344" height="499.584" viewBox="0 0 484.344 499.584"><defs><style>.a{fill:none;}.b,.c{stroke:none;}.c{fill:#305b95;}</style></defs><g class="a" transform="translate(103.363 0)"><path class="b" d="M249.164,168.721a62.813,62.813,0,0,1,25.694,28.436,78.031,78.031,0,0,1,6.456,39.094,89.693,89.693,0,0,1-13.2,39.771,84.223,84.223,0,0,1-31.528,29.8L92.513,383.516c-10.894,5.875-21.731,7.554-31.657,5.926a47.757,47.757,0,0,1-25.819-13.509,63.82,63.82,0,0,1-15.875-27.077,84.21,84.21,0,0,1-2.448-35.963L37.631,162.085a88.342,88.342,0,0,1,11.69-33.176,84.1,84.1,0,0,1,21.8-24.333C79.633,98.264,89.084,94.044,98.6,92.638a43.082,43.082,0,0,1,28.378,5.221Z"/><path class="c" d="M 43.2059211730957 314.818115234375 C 42.60226821899414 319.3579711914062 42.66708755493164 323.3807678222656 43.16307067871094 326.9199829101562 C 43.66065979003906 330.4706115722656 44.59270858764648 333.5377502441406 45.72023773193359 336.1491088867188 C 46.85197067260742 338.7702331542969 48.18076324462891 340.9324645996094 49.46372604370117 342.6607360839844 C 50.75104522705078 344.3948669433594 51.99120712280273 345.6907348632812 52.93740081787109 346.5722351074219 C 53.88569641113281 347.4556884765625 55.24526214599609 348.5810852050781 56.97201156616211 349.6496276855469 C 58.70523834228516 350.7222290039062 60.81055450439453 351.7388305664062 63.24332809448242 352.3964538574219 C 65.68752288818359 353.0570678710938 68.46388244628906 353.3558044433594 71.52574920654297 352.98388671875 C 74.603271484375 352.6101684570312 77.96952056884766 351.5588989257812 81.57465362548828 349.5170288085938 L 221.4700164794922 270.282958984375 C 225.8294982910156 267.8138122558594 229.3275909423828 264.8824157714844 232.1296081542969 261.7649230957031 C 234.9388275146484 258.6393432617188 237.0415649414062 255.3342590332031 238.6132049560547 252.1253509521484 C 240.1857452392578 248.9144592285156 241.2241058349609 245.8048248291016 241.9085693359375 243.0680389404297 C 242.5926666259766 240.3326568603516 242.9227600097656 237.9715576171875 243.0805358886719 236.251708984375 C 243.2382049560547 234.533203125 243.3409729003906 232.1780548095703 243.1590270996094 229.4556274414062 C 242.9774017333984 226.7382202148438 242.5122680664062 223.6583862304688 241.5364379882812 220.4870910644531 C 240.5638275146484 217.326416015625 239.0855102539062 214.0801849365234 236.8796844482422 211.018798828125 C 234.6854705810547 207.9734954833984 231.7758941650391 205.117431640625 227.9384307861328 202.7173156738281 L 108.9691772460938 128.308349609375 C 106.0065689086914 126.4554290771484 103.0458831787109 125.5026779174805 100.2041168212891 125.1641235351562 C 97.37767028808594 124.8274078369141 94.66543579101562 125.0978622436523 92.18283843994141 125.6963348388672 C 89.71047973632812 126.2923355102539 87.4627685546875 127.2143936157227 85.55426025390625 128.1880035400391 C 83.65121459960938 129.1588592529297 82.08296966552734 130.1822509765625 80.96437072753906 130.986328125 C 79.84748077392578 131.7891845703125 78.34806823730469 132.9704742431641 76.69477081298828 134.5533447265625 C 75.04476928710938 136.1331024169922 73.24156188964844 138.1127777099609 71.51038360595703 140.5173950195312 C 69.78188323974609 142.9182586669922 68.12371063232422 145.7447662353516 66.75811004638672 149.0260772705078 C 65.39288330078125 152.3064422607422 64.31770324707031 156.0469818115234 63.75435638427734 160.2834167480469 L 43.2059211730957 314.818115234375 M 16.71425437927246 312.8932189941406 L 37.63077545166016 162.0845642089844 C 39.32334899902344 149.8811340332031 43.50227737426758 138.6368408203125 49.32046890258789 128.9087066650391 C 55.1633186340332 119.1392822265625 62.70889663696289 110.8161087036133 71.12171936035156 104.5761871337891 C 79.63252258300781 98.26364135742188 89.08389282226562 94.04387664794922 98.59814453125 92.63798522949219 C 108.2730255126953 91.2083740234375 118.0513153076172 92.68287658691406 126.9760055541992 97.85871124267578 L 249.1641235351562 168.7212677001953 C 255.0019226074219 172.1068878173828 260.0596008300781 176.2719573974609 264.3336791992188 181.0457916259766 C 268.6484680175781 185.8650970458984 272.1566772460938 191.2958679199219 274.8579711914062 197.1577606201172 C 277.5797424316406 203.0640106201172 279.4767150878906 209.3955841064453 280.5531005859375 215.9638519287109 C 281.6353149414062 222.5674591064453 281.8855590820312 229.3951263427734 281.3136291503906 236.2517547607422 C 280.7399291992188 243.1288757324219 279.3404541015625 250.0180053710938 277.13134765625 256.7203979492188 C 274.9212951660156 263.425537109375 271.9067687988281 269.9259338378906 268.1108093261719 276.0224609375 C 264.3236999511719 282.1049194335938 259.7693786621094 287.7682189941406 254.4782104492188 292.8169860839844 C 249.2144622802734 297.8395385742188 243.2367553710938 302.239013671875 236.5823669433594 305.8273315429688 L 92.51280212402344 383.5160522460938 C 81.61833953857422 389.3908386230469 70.78171539306641 391.0696105957031 60.8558464050293 389.4419860839844 C 51.10762786865234 387.8434143066406 42.25115585327148 383.0577392578125 35.03696441650391 375.9334716796875 C 27.94702529907227 368.9318237304688 22.42662048339844 359.6550598144531 19.16208457946777 348.8562316894531 C 15.94018459320068 338.1984558105469 14.89691162109375 325.9963989257812 16.71425437927246 312.8932189941406 Z"/></g><g class="a" transform="translate(0 27.643)"><path class="b" d="M208.872,148.614c8.978,6.118,15.327,14.992,19.1,25.374a76.1,76.1,0,0,1,3.564,34.62,89.794,89.794,0,0,1-11.826,35.15,75.223,75.223,0,0,1-25.832,26.453L76.593,340.336c-8.967,5.361-17.764,6.99-25.732,5.661a35.367,35.367,0,0,1-20.5-11.77c-5.544-6.193-9.747-14.454-12.067-24.116a82.561,82.561,0,0,1-.859-32.32L39.376,141.448A88.329,88.329,0,0,1,50.015,111.4,76.972,76.972,0,0,1,68.6,89.5c7.137-5.641,14.959-9.364,22.724-10.53a31.253,31.253,0,0,1,22.76,5.052Z"/><path class="c" d="M 38.96836090087891 279.3567504882812 C 38.3306999206543 283.4375915527344 38.25344085693359 287.0487976074219 38.54236221313477 290.2218322753906 C 38.83209991455078 293.4041137695312 39.49043655395508 296.1482849121094 40.32203674316406 298.4811401367188 C 41.15647506713867 300.8218994140625 42.16544342041016 302.7488403320312 43.15085983276367 304.28662109375 C 44.13929748535156 305.8290405273438 45.1033935546875 306.9789123535156 45.84222412109375 307.7599487304688 C 46.58257293701172 308.5425720214844 47.64825057983398 309.537841796875 49.01302337646484 310.4786071777344 C 50.38241958618164 311.422607421875 52.05442047119141 312.3126831054688 54.00247955322266 312.8782653808594 C 55.95877075195312 313.4461669921875 58.19460296630859 313.6871948242188 60.68213272094727 313.3261108398438 C 63.18104553222656 312.9634704589844 65.93419647216797 311.9931640625 68.91146850585938 310.1366271972656 L 183.2861022949219 238.8154144287109 C 186.8144683837891 236.615234375 189.6790008544922 234.0086364746094 192.0010223388672 231.2396240234375 C 194.3283538818359 228.4642486572266 196.1056823730469 225.5316772460938 197.4612121582031 222.6853942871094 C 198.8174743652344 219.8375701904297 199.7497100830078 217.0801239013672 200.3896942138672 214.6533508300781 C 201.0294036865234 212.2276611328125 201.3767700195312 210.1338348388672 201.5647888183594 208.6085662841797 C 201.7527160644531 207.0843200683594 201.9211273193359 204.9951477050781 201.8791809082031 202.5796661376953 C 201.8373260498047 200.1681518554688 201.5858459472656 197.4341583251953 200.9356842041016 194.6175079345703 C 200.2874145507812 191.8092498779297 199.2437744140625 188.9230194091797 197.6194915771484 186.1982879638672 C 196.0028228759766 183.4862823486328 193.8138885498047 180.9392547607422 190.8740844726562 178.7937774658203 L 98.49800109863281 111.3775100708008 C 96.16664123535156 109.6760864257812 93.80453491210938 108.7879486083984 91.51634216308594 108.4561462402344 C 89.23925018310547 108.1259536743164 87.03287506103516 108.3463668823242 85.00050354003906 108.8659591674805 C 82.9757080078125 109.3835983276367 81.12127685546875 110.1987991333008 79.539794921875 111.0639724731445 C 77.96238708496094 111.9268951416016 76.65464782714844 112.8405838012695 75.71916961669922 113.5595474243164 C 74.78501129150391 114.2775268554688 73.52722930908203 115.3353652954102 72.13067626953125 116.7560577392578 C 70.73661041259766 118.174201965332 69.20433807373047 119.9538650512695 67.71617126464844 122.1195602416992 C 66.23008728027344 124.2822113037109 64.78683471679688 126.8314590454102 63.56637573242188 129.7951965332031 C 62.34624099731445 132.7581787109375 61.34685897827148 136.1400451660156 60.74778366088867 139.9740905761719 L 38.96836090087891 279.3567504882812 M 17.43428802490234 277.7920837402344 L 39.37565612792969 141.4476013183594 C 41.15718460083008 130.3770294189453 44.9412841796875 120.1924362182617 50.01470565795898 111.4004211425781 C 55.10763931274414 102.5746231079102 61.53897094726562 95.08443450927734 68.60161590576172 89.50251007080078 C 75.73860168457031 83.86185455322266 83.56041717529297 80.13818359375 91.32596588134766 78.97293090820312 C 99.20977020263672 77.78993225097656 107.063591003418 79.23972320556641 114.0857696533203 84.02476501464844 L 208.8724517822266 148.6143646240234 C 213.3388366699219 151.6578674316406 217.1574401855469 155.3868408203125 220.3335571289062 159.6489410400391 C 223.5364685058594 163.947021484375 226.0807342529297 168.7800903320312 227.9743347167969 173.9883117675781 C 229.880615234375 179.2313690185547 231.1239929199219 184.8448791503906 231.7158660888672 190.6623687744141 C 232.3105163574219 196.5075073242188 232.2463226318359 202.5467529296875 231.5385894775391 208.6085968017578 C 230.8289947509766 214.6864624023438 229.4740447998047 220.7736968994141 227.4938201904297 226.6961059570312 C 225.5128326416016 232.6206359863281 222.9106903076172 238.3662719726562 219.7122497558594 243.758544921875 C 216.5203704833984 249.1397247314453 212.7425689697266 254.1555786132812 208.4084930419922 258.6343078613281 C 204.0943298339844 263.0925598144531 199.2401428222656 267.0069274902344 193.8803253173828 270.2115173339844 L 76.59266662597656 340.3359069824219 C 67.62545776367188 345.6972351074219 58.8287467956543 347.3263244628906 50.8604736328125 345.9969482421875 C 43.02020263671875 344.6888732910156 35.99178695678711 340.5181579589844 30.36003494262695 334.2274169921875 C 24.81559753417969 328.0342712402344 20.61328125 319.7734069824219 18.29334831237793 310.1116943359375 C 16.0007266998291 300.5637817382812 15.53440856933594 289.5980834960938 17.43428802490234 277.7920837402344 Z"/></g></svg>
